<?xml version="1.0" encoding="utf-8"?>
<!-- Generated by IcoMoon.io -->
<!DOCTYPE svg PUBLIC "-//W3C//DTD SVG 1.1//EN" "http://www.w3.org/Graphics/SVG/1.1/DTD/svg11.dtd">
<svg version="1.1" xmlns="http://www.w3.org/2000/svg" xmlns:xlink="http://www.w3.org/1999/xlink" width="32" height="32" viewBox="0 0 32 32">
<g id="icomoon-ignore">
	<line stroke-width="1" x1="" y1="" x2="" y2="" stroke="#449FDB" opacity=""></line>
</g>
	<path d="M8.992 11.712c1.472 0.608 3.904 0.512 6.688 0.352 2.848-0.128 6.080-0.288 9.248 0.288 2.016 0.384 3.808 0.992 5.376 1.92-0.48-3.904-2.528-7.584-5.952-10.016-1.568-0.064-3.168 0.096-4.736 0.448-4.32 1.024-8.032 3.488-10.624 7.008z" fill="#000000"></path>
	<path d="M22.496 3.136c-4.096-2.048-8.8-1.984-12.736-0.096-0.96 1.92-2.688 6.272-1.696 7.968 2.752-3.744 6.688-6.336 11.264-7.392 1.056-0.256 2.112-0.416 3.168-0.48z" fill="#000000"></path>
	<path d="M5.28 16.416c0.192-0.544 0.384-1.088 0.64-1.632-1.216-1.088-2.4-2.24-3.52-3.456-0.672 1.952-0.896 4-0.736 5.984 1.408-0.96 2.624-1.248 3.616-0.896z" fill="#000000"></path>
	<path d="M2.88 10.112c1.12 1.248 2.304 2.432 3.552 3.552 0.256-0.512 0.544-0.992 0.832-1.472 0.032-0.064 0.096-0.128 0.128-0.192-0.928-1.056-0.992-2.944-0.192-5.632 0.256-0.864 0.576-1.696 0.864-2.368-1.664 1.088-3.136 2.56-4.256 4.384-0.352 0.544-0.672 1.12-0.928 1.728z" fill="#000000"></path>
	<path d="M4.928 17.504c-0.832-0.32-1.952 0.224-3.104 1.088 0.384 2.112 1.248 4.16 2.56 5.92-0.224-2.336-0.064-4.736 0.544-7.008z" fill="#000000"></path>
	<path d="M12.736 18.432c4.64 2.912 9.664 4.928 14.944 6.016 0.192-0.256 0.352-0.512 0.544-0.8 1.536-2.464 2.24-5.216 2.176-7.936-4.416-2.976-10.016-2.688-14.656-2.464-3.040 0.16-5.696 0.288-7.424-0.544-0.032 0.032-0.064 0.096-0.096 0.128-0.32 0.544-0.64 1.088-0.928 1.632 1.728 1.44 3.52 2.784 5.44 3.968z" fill="#000000"></path>
	<path d="M8.384 28.224c1.056 0.64 2.144 1.152 3.264 1.504-1.12-1.984-2.016-4.032-2.816-5.92-0.992-2.304-1.856-4.32-2.88-5.504-0.608 2.56-0.64 5.248-0.096 7.904 0.736 0.736 1.568 1.408 2.528 2.016z" fill="#000000"></path>
	<path d="M9.888 23.36c0.928 2.176 1.952 4.608 3.36 6.784 4.992 0.96 10.24-0.736 13.632-4.672-5.216-1.152-10.176-3.2-14.752-6.048-1.888-1.184-3.648-2.464-5.312-3.872-0.192 0.48-0.384 0.96-0.544 1.472 1.44 1.248 2.464 3.616 3.616 6.336z" fill="#000000"></path>
</svg>
