<?xml version="1.0" encoding="utf-8"?>
<!-- Generated by IcoMoon.io -->
<!DOCTYPE svg PUBLIC "-//W3C//DTD SVG 1.1//EN" "http://www.w3.org/Graphics/SVG/1.1/DTD/svg11.dtd">
<svg version="1.1" xmlns="http://www.w3.org/2000/svg" xmlns:xlink="http://www.w3.org/1999/xlink" width="21" height="32" viewBox="0 0 21 32">
<g id="icomoon-ignore">
	<line stroke-width="1" x1="" y1="" x2="" y2="" stroke="#449FDB" opacity=""></line>
</g>
	<path d="M19.398 5.912l-14.013-5.867-0.171-0.039c-1.401-0.071-2.846 0.462-3.861 1.427-0.872 0.829-1.352 1.902-1.352 3.021v0.51h0.005v18.422c0 1.079 0.809 2.258 1.799 2.627l13.388 5.872c0.203 0.076 0.403 0.114 0.595 0.114 0.534 0 0.939-0.296 1.13-0.773l2.407-1.971c0.517 0.118 1.019 0.037 1.412-0.235 0.474-0.329 0.746-0.907 0.746-1.586v-18.48c0-1.267-0.914-2.601-2.083-3.043zM20.461 27.436c0 0.345-0.109 0.611-0.307 0.748-0.19 0.132-0.462 0.142-0.765 0.029l-0.501 0.083-1.848 1.513v-17.719c0-1.079-0.809-2.257-1.799-2.627l-13.388-5.872c-0.195-0.073-0.708-0.265-0.185-0.983 0.116-0.152 0.243-0.299 0.388-0.437 0.796-0.756 1.917-1.183 3.021-1.151l13.956 5.843c0.775 0.289 1.429 1.247 1.429 2.091v18.48z" fill="#000000"></path>
</svg>
