<?xml version="1.0" encoding="utf-8"?>
<!-- Generator: Adobe Illustrator 16.0.4, SVG Export Plug-In . SVG Version: 6.00 Build 0)  -->
<!DOCTYPE svg PUBLIC "-//W3C//DTD SVG 1.1//EN" "http://www.w3.org/Graphics/SVG/1.1/DTD/svg11.dtd">
<svg version="1.1" id="Your_Icon" xmlns="http://www.w3.org/2000/svg" xmlns:xlink="http://www.w3.org/1999/xlink" x="0px" y="0px"
	 width="100px" height="100px" viewBox="0 0 100 100" enable-background="new 0 0 100 100" xml:space="preserve">
<path d="M55,0C27.3,0,4.9,22.301,4.9,50c0,27.7,17.499,88.393,45.1,88.393c27.6,0,50-22.398,50-50C100,60.793,82.5,0,55,0z
	 M69.9,29.2c3.8,0,6.8,3,6.8,6.8c0,3.801-3,6.7-6.8,6.7c-3.801,0-6.801-3-6.801-6.7C63.2,32.2,66.2,29.2,69.9,29.2z M39.9,29.2
	c3.699,0,6.699,3.101,6.699,6.8c0,3.801-3,6.7-6.8,6.7c-3.8,0-6.7-3-6.7-6.8C33,32.101,36,29.2,39.9,29.2z M54.9,81.301
	c-17.2,0-31.801,26.393-35.101,14.393c2.8,0,5.6,0,8.3,0c0.3,0,0.6,0.5,0.7,0.899c1.899,5.3,5.1,9.399,10.1,12.101
	c4,2.1,8.3,2.801,12.8,2.5c4.9-0.301,9.4-1.9,13.102-5.199c2.898-2.602,4.898-5.701,6.099-9.401c0.2-0.7,0.5-1,1.3-1
	c2.602,0.101,5.2,0,7.801,0C77.1,106.793,72.6,81.301,54.9,81.301z"/>
</svg>
