<svg xmlns="http://www.w3.org/2000/svg">
  <symbol viewBox="0 0 32 32" id="clubs">
    <title>clubs</title>
    <g id="svgstore66ee269a4e3dfa8e619d858b30e69dadicomoon-ignore">
      <line stroke-width="1" x1="" y1="" x2="" y2="" stroke="#449FDB" opacity="" />
    </g>
    <path d="M24.588 12.274c-1.845 0-3.503 0.769-4.683 2.022-0.5 0.531-1.368 1.16-2.306 1.713 0.441-1.683 1.834-3.803 2.801-4.733 1.239-1.193 2-2.87 2-4.734 0-3.59-2.859-6.503-6.4-6.541-3.541 0.038-6.4 2.951-6.4 6.541 0 1.865 0.761 3.542 2 4.734 0.967 0.93 2.36 3.050 2.801 4.733-0.939-0.553-1.806-1.182-2.306-1.713-1.18-1.253-2.838-2.022-4.683-2.022-3.575 0-6.471 2.927-6.471 6.541s2.897 6.542 6.471 6.542c1.845 0 3.503-0.792 4.683-2.045 0.525-0.558 1.451-1.254 2.447-1.832-0.094 4.615-2.298 8.005-4.541 9.341v1.179h12v-1.179c-2.244-1.335-4.448-4.726-4.541-9.341 0.995 0.578 1.922 1.274 2.447 1.832 1.18 1.253 2.838 2.045 4.683 2.045 3.575 0 6.471-2.928 6.471-6.542s-2.897-6.541-6.471-6.541z"
    fill="#000000" />
  </symbol>
  <symbol viewBox="0 0 32 32" id="droplet">
    <title>droplet</title>
    <g id="svgstore23f933c0eba52e7f4b04bfb59d4dc134icomoon-ignore">
      <line stroke-width="1" x1="" y1="" x2="" y2="" stroke="#449FDB" opacity="" />
    </g>
    <path d="M27.998 19.797c-0-0.022-0.001-0.044-0.001-0.066-0.001-0.045-0.002-0.089-0.004-0.134-0.313-9.864-11.993-19.597-11.993-19.597s-11.68 9.733-11.993 19.598c-0.001 0.045-0.003 0.089-0.004 0.134-0 0.022-0.001 0.044-0.001 0.066-0.001 0.067-0.002 0.135-0.002 0.203 0 0.074 0.001 0.148 0.002 0.221 0 0.006 0 0.012 0 0.018 0.127 6.517 5.45 11.76 11.997 11.76s11.87-5.244 11.997-11.761c0-0.006 0-0.012 0-0.018 0.001-0.074 0.002-0.147 0.002-0.221 0-0.068-0.001-0.136-0.002-0.203zM23.998 20.148l-0 0.013c-0.041 2.103-0.892 4.073-2.395 5.548-1.504 1.477-3.495 2.291-5.604 2.291-0.389 0-0.775-0.028-1.154-0.082 4.346-2.589 7.257-7.335 7.257-12.76 0-0.608-0.037-1.207-0.108-1.796 1.259 2.311 1.939 4.462 2 6.363l0 0.005c0.001 0.030 0.002 0.059 0.002 0.089l0.001 0.045c0.001 0.046 0.002 0.091 0.002 0.137 0 0.049-0.001 0.099-0.002 0.148z"
    fill="#000000" />
  </symbol>
  <symbol viewBox="0 0 32 32" id="headphones">
    <title>headphones</title>
    <g id="svgstorebcfe1db836fd054aeda1364647ea2287icomoon-ignore">
      <line stroke-width="1" x1="" y1="" x2="" y2="" stroke="#449FDB" opacity="" />
    </g>
    <path d="M6 18.071v13.857c0.327 0.047 0.66 0.071 1 0.071h1v-14h-1c-0.34 0-0.673 0.025-1 0.071zM24 18v14h1c0.34 0 0.673-0.025 1-0.071v-13.857c-0.327-0.047-0.66-0.071-1-0.071h-1zM32 16c0-8.837-7.163-16-16-16s-16 7.163-16 16c0 1.919 0.338 3.76 0.958 5.465-0.609 1.038-0.958 2.245-0.958 3.535 0 2.792 1.635 5.202 4 6.326v-12.652c-0.629 0.299-1.206 0.689-1.714 1.153-0.187-0.913-0.286-1.859-0.286-2.827 0-7.732 6.268-14 14-14s14 6.268 14 14c0 0.969-0.098 1.914-0.286 2.827-0.509-0.464-1.085-0.854-1.714-1.153v12.652c2.365-1.124 4-3.534 4-6.326 0-1.29-0.349-2.498-0.958-3.535 0.62-1.705 0.958-3.546 0.958-5.465z"
    fill="#000000" />
  </symbol>
  <symbol viewBox="0 0 32 32" id="home">
    <title>home</title>
    <g id="svgstoredc4843a099018fd5e12e99c22ac3f7eaicomoon-ignore">
      <line stroke-width="1" x1="" y1="" x2="" y2="" stroke="#449FDB" opacity="" />
    </g>
    <path d="M32 19l-6-6v-9h-4v5l-6-6-16 16v1h4v10h10v-6h4v6h10v-10h4z" fill="#000000" />
  </symbol>
  <symbol viewBox="0 0 21 32" id="icon_1975">
    <title>icon_1975</title>
    <g id="svgstore929766ffcb9e9625d0c9b01f3114466aicomoon-ignore">
      <line stroke-width="1" x1="" y1="" x2="" y2="" stroke="#449FDB" opacity="" />
    </g>
    <path d="M19.398 5.912l-14.013-5.867-0.171-0.039c-1.401-0.071-2.846 0.462-3.861 1.427-0.872 0.829-1.352 1.902-1.352 3.021v0.51h0.005v18.422c0 1.079 0.809 2.258 1.799 2.627l13.388 5.872c0.203 0.076 0.403 0.114 0.595 0.114 0.534 0 0.939-0.296 1.13-0.773l2.407-1.971c0.517 0.118 1.019 0.037 1.412-0.235 0.474-0.329 0.746-0.907 0.746-1.586v-18.48c0-1.267-0.914-2.601-2.083-3.043zM20.461 27.436c0 0.345-0.109 0.611-0.307 0.748-0.19 0.132-0.462 0.142-0.765 0.029l-0.501 0.083-1.848 1.513v-17.719c0-1.079-0.809-2.257-1.799-2.627l-13.388-5.872c-0.195-0.073-0.708-0.265-0.185-0.983 0.116-0.152 0.243-0.299 0.388-0.437 0.796-0.756 1.917-1.183 3.021-1.151l13.956 5.843c0.775 0.289 1.429 1.247 1.429 2.091v18.48z"
    fill="#000000" />
  </symbol>
  <symbol viewBox="0 0 32 32" id="icon_64846">
    <title>icon_64846</title>
    <g id="svgstore77951444b3a247e63a5e4fdd228a4b52icomoon-ignore">
      <line stroke-width="1" x1="" y1="" x2="" y2="" stroke="#449FDB" opacity="" />
    </g>
    <path d="M8.992 11.712c1.472 0.608 3.904 0.512 6.688 0.352 2.848-0.128 6.080-0.288 9.248 0.288 2.016 0.384 3.808 0.992 5.376 1.92-0.48-3.904-2.528-7.584-5.952-10.016-1.568-0.064-3.168 0.096-4.736 0.448-4.32 1.024-8.032 3.488-10.624 7.008z" fill="#000000"
    />
    <path d="M22.496 3.136c-4.096-2.048-8.8-1.984-12.736-0.096-0.96 1.92-2.688 6.272-1.696 7.968 2.752-3.744 6.688-6.336 11.264-7.392 1.056-0.256 2.112-0.416 3.168-0.48z" fill="#000000" />
    <path d="M5.28 16.416c0.192-0.544 0.384-1.088 0.64-1.632-1.216-1.088-2.4-2.24-3.52-3.456-0.672 1.952-0.896 4-0.736 5.984 1.408-0.96 2.624-1.248 3.616-0.896z" fill="#000000" />
    <path d="M2.88 10.112c1.12 1.248 2.304 2.432 3.552 3.552 0.256-0.512 0.544-0.992 0.832-1.472 0.032-0.064 0.096-0.128 0.128-0.192-0.928-1.056-0.992-2.944-0.192-5.632 0.256-0.864 0.576-1.696 0.864-2.368-1.664 1.088-3.136 2.56-4.256 4.384-0.352 0.544-0.672 1.12-0.928 1.728z"
    fill="#000000" />
    <path d="M4.928 17.504c-0.832-0.32-1.952 0.224-3.104 1.088 0.384 2.112 1.248 4.16 2.56 5.92-0.224-2.336-0.064-4.736 0.544-7.008z" fill="#000000" />
    <path d="M12.736 18.432c4.64 2.912 9.664 4.928 14.944 6.016 0.192-0.256 0.352-0.512 0.544-0.8 1.536-2.464 2.24-5.216 2.176-7.936-4.416-2.976-10.016-2.688-14.656-2.464-3.040 0.16-5.696 0.288-7.424-0.544-0.032 0.032-0.064 0.096-0.096 0.128-0.32 0.544-0.64 1.088-0.928 1.632 1.728 1.44 3.52 2.784 5.44 3.968z"
    fill="#000000" />
    <path d="M8.384 28.224c1.056 0.64 2.144 1.152 3.264 1.504-1.12-1.984-2.016-4.032-2.816-5.92-0.992-2.304-1.856-4.32-2.88-5.504-0.608 2.56-0.64 5.248-0.096 7.904 0.736 0.736 1.568 1.408 2.528 2.016z" fill="#000000" />
    <path d="M9.888 23.36c0.928 2.176 1.952 4.608 3.36 6.784 4.992 0.96 10.24-0.736 13.632-4.672-5.216-1.152-10.176-3.2-14.752-6.048-1.888-1.184-3.648-2.464-5.312-3.872-0.192 0.48-0.384 0.96-0.544 1.472 1.44 1.248 2.464 3.616 3.616 6.336z" fill="#000000"
    />
  </symbol>
  <symbol viewBox="0 0 32 32" id="pacman">
    <title>pacman</title>
    <g id="svgstorebae47cce380f166dec3ef9116ebb5dd3icomoon-ignore">
      <line stroke-width="1" x1="" y1="" x2="" y2="" stroke="#449FDB" opacity="" />
    </g>
    <path d="M30.148 5.588c-2.934-3.42-7.288-5.588-12.148-5.588-8.837 0-16 7.163-16 16s7.163 16 16 16c4.86 0 9.213-2.167 12.148-5.588l-10.148-10.412 10.148-10.412zM22 3.769c1.232 0 2.231 0.999 2.231 2.231s-0.999 2.231-2.231 2.231-2.231-0.999-2.231-2.231c0-1.232 0.999-2.231 2.231-2.231z"
    fill="#000000" />
  </symbol>
  <symbol viewBox="0 0 100 100" id="smile">
    <title>smile</title>
    <path d="M55,0C27.3,0,4.9,22.301,4.9,50c0,27.7,17.499,88.393,45.1,88.393c27.6,0,50-22.398,50-50C100,60.793,82.5,0,55,0z

	 M69.9,29.2c3.8,0,6.8,3,6.8,6.8c0,3.801-3,6.7-6.8,6.7c-3.801,0-6.801-3-6.801-6.7C63.2,32.2,66.2,29.2,69.9,29.2z M39.9,29.2

	c3.699,0,6.699,3.101,6.699,6.8c0,3.801-3,6.7-6.8,6.7c-3.8,0-6.7-3-6.7-6.8C33,32.101,36,29.2,39.9,29.2z M54.9,81.301

	c-17.2,0-31.801,26.393-35.101,14.393c2.8,0,5.6,0,8.3,0c0.3,0,0.6,0.5,0.7,0.899c1.899,5.3,5.1,9.399,10.1,12.101

	c4,2.1,8.3,2.801,12.8,2.5c4.9-0.301,9.4-1.9,13.102-5.199c2.898-2.602,4.898-5.701,6.099-9.401c0.2-0.7,0.5-1,1.3-1

	c2.602,0.101,5.2,0,7.801,0C77.1,106.793,72.6,81.301,54.9,81.301z" />
  </symbol>
</svg>